<svg width="512" height="512" xmlns="http://www.w3.org/2000/svg">
 <defs>
  <filter height="200%" width="200%" y="-50%" x="-50%" id="svg_103_blur">
   <feGaussianBlur stdDeviation="3.2" in="SourceGraphic"/>
  </filter>
 </defs>
 <g>
  <title>Layer 1</title>
  <ellipse ry="244.1111" rx="236.83333" id="svg_94" cy="255.99997" cx="256.00001" stroke-width="5" stroke="#4C261D" fill="#894F3F"/>
  <path id="svg_12" d="m290.70559,289.19071c75.48806,68.919 114.92212,151.96075 114.80947,151.50886" opacity="undefined" stroke-width="15" stroke="#471f16" fill="none"/>
  <path id="svg_13" d="m209.54583,88.33197" opacity="NaN" stroke-width="5" stroke="#8B4D4B" fill="none"/>
  <path id="svg_14" d="m470.43579,277.11686" opacity="NaN" stroke-width="5" stroke="#8B4D4B" fill="none"/>
  <path id="svg_16" d="m472.09487,280.9179" opacity="NaN" stroke-width="5" stroke="#8B4D4B" fill="none"/>
  <path id="svg_17" d="m486.71763,290.76702c-160.24521,-135.0869 -173.09911,-189.21112 -173.09912,-189.21112c0.00002,0 -42.41783,-45.17807 -103.68806,-12.52461" opacity="undefined" stroke-width="15" stroke="#4c241b" fill="none"/>
  <path d="m195.0289,100.57977c0,-0.42234 -0.33633,-0.42996 -0.41477,-0.84467c-0.42239,-2.23332 -0.82954,-3.80104 -0.82954,-5.06806c0,-2.95637 0,-4.64571 0,-6.33505c0,-1.68936 0,-4.22339 0,-5.4904c0,-2.95637 0,-3.3787 0,-3.80104c0,-0.84467 0,-1.26702 0,-2.11169c0,-1.68935 0,-2.95637 0,-3.3787c0,-0.42234 0.82954,-0.42234 0.82954,-1.26701c0,-0.42234 0.1903,-1.13754 0.41477,-1.68935c0.15873,-0.3902 -0.48077,-1.3395 0,-2.95637c0.43337,-1.45742 0.51208,-1.75365 0.82954,-2.53402c0.22446,-0.55181 0.12889,-1.72324 0.41477,-2.95637c0.21309,-0.91911 0.41477,-2.11169 0.41477,-3.3787c0,-0.42234 0.82955,-2.53402 0.82955,-2.95636c0,-0.42234 0.12148,-0.96838 0.41477,-1.26702c0.29329,-0.29864 0.24296,-0.66973 0.82954,-1.26701c0.29329,-0.29865 0.20168,-0.77024 0.41477,-1.68935c0.09529,-0.41105 0.12148,-1.39071 0.41477,-1.68935c0.58657,-0.59728 0.95102,-0.1237 1.2443,-0.42234c0.58657,-0.59728 0.82955,-0.84468 1.24432,-0.84468c0.41477,0 0.41477,-0.42234 1.2443,-0.42234c0.41477,0 1.2443,-0.84468 1.65909,-0.84468c0.41477,0 0.95102,-0.1237 1.2443,-0.42234c0.29329,-0.29864 1.2443,0 1.65907,0c0.41477,0 0.53866,-0.02174 1.24432,0.42234c0.78894,0.49649 0.65773,1.51442 1.2443,2.11169c0.29329,0.29864 0.53625,0.1237 0.82954,0.42234c0.29329,0.29864 0.24296,0.66973 0.82954,1.26701c0.29329,0.29865 0.12148,0.96837 0.41478,1.26702c0.29329,0.29864 0.38059,0.58573 0.82954,1.68935c0.15872,0.39019 0.25605,1.29916 0.41477,1.68935c0.22446,0.55181 0.41477,1.26702 0.41477,1.68935c0,0.84467 0.82954,0.84467 0.82954,1.26701c0,0.42234 0.12148,0.96838 0.41477,1.26702c0.29329,0.29864 0,1.26702 0,1.68935c0,0.42234 0.82955,0.42234 0.82955,1.26702c0,0.42234 -0.29329,1.39071 0,1.68935c0.29329,0.29864 0.41477,0.42234 0.41477,1.26701c0,0.42234 0,1.26702 0,1.68935c0,0.42234 0,1.26702 0,1.68935c0,0.84467 0,1.26702 0,1.68935c0,0.84467 0,1.26702 0,2.11169c0,0.42234 0,0.84467 0,1.68935c0,0.42234 0,1.26702 0,1.68935c0,0.42234 0,1.26701 0,1.68935c0,0.84467 0,1.26701 0,1.68934c0,0.84467 -0.58657,1.51442 0,2.11169c0.29329,0.29864 0.41477,0.42234 0.41477,0.84467l0,0.84467l0.82954,0l0,0.42234" id="svg_18" stroke-width="15" stroke="#4C261D" fill="none"/>
  <path d="m295.81786,91.71067c0,-0.42234 0,-0.84467 0,-1.68934c0,-0.42234 0.41478,-0.42234 0.41478,-1.26701c0,-0.42234 0,-0.84469 0,-1.68936c0,-0.42234 0,-1.68934 0,-2.95637c0,-0.42234 0,-1.68934 0,-2.11168c0,-0.84467 0,-1.26702 0,-2.53403c0,-1.26701 0.82954,-1.68935 0.82954,-2.53402c0,-0.42234 0,-0.84467 0,-2.95637c0,-0.42234 -0.40336,-1.54047 -0.82954,-3.37869c-0.09529,-0.41105 -0.34834,-2.53948 -0.41478,-2.95637c-0.2101,-1.3183 -0.22417,-1.71195 -0.41475,-2.53402c-0.42617,-1.83823 -1.03123,-2.88192 -1.24432,-3.80104c-0.28588,-1.23312 -0.34196,-1.7307 -0.82954,-2.53403c-0.65416,-1.07779 -0.20582,-1.6504 -0.41478,-3.37869c-0.25339,-2.09587 0.09529,-2.54533 0,-2.95637c-0.21309,-0.91911 -0.41475,-2.11169 -0.41475,-2.53402c0,-1.26702 -0.82954,-1.68935 -0.82954,-2.53403c0,-0.84467 -0.41478,-1.68934 -0.41478,-2.11169c0,-1.26701 -0.38061,-1.43041 -0.82954,-2.53402c-0.15872,-0.39019 -0.1903,-1.13755 -0.41475,-1.68935c-0.47616,-1.17058 0.46508,-2.06045 -0.41478,-2.95636c-0.58657,-0.59728 -0.69665,-0.43325 -0.82954,-1.26702c-0.2101,-1.31831 -0.29622,-1.77874 -1.24432,-2.95637c-0.37186,-0.46189 -0.60506,-1.13753 -0.82954,-1.68935c-0.15872,-0.39019 -0.24296,-0.66973 -0.82954,-1.26701c-0.29329,-0.29865 -0.41478,-0.42234 -1.24432,-0.42234c-0.41475,0 -0.82954,0 -1.65907,0c-0.41475,0 -1.24432,0 -1.65907,0c-0.41478,0 -1.24432,0 -1.65907,0c-0.82954,0 -1.24432,0 -1.6591,0c-0.82954,0 -0.951,0.1237 -1.24429,0.42234c-0.58657,0.59728 -0.86112,0.68304 -1.24432,0.84467c-0.54192,0.22857 -1.19357,0.87256 -1.65907,1.68935c-0.75062,1.31705 -1.24432,1.68935 -1.65907,2.11169c-0.82954,0.84469 -1.03123,1.19257 -1.24432,2.11169c-0.09529,0.41105 -0.35335,0.5188 -0.82954,1.68935c-0.22448,0.55182 -0.61645,1.19258 -0.82954,2.11169c-0.28588,1.23312 -0.69665,2.1226 -0.82954,2.95637c-0.2101,1.31831 -0.75674,2.15303 -1.24432,2.95636c-1.0903,1.79632 0.09529,2.54533 0,2.95637c-0.21309,0.91911 -0.41478,1.26702 -0.41478,2.11169c0,0.42234 0,0.84468 0,1.68935c0,0.42234 0,1.26702 0,1.68935c0,0.42234 0,1.26702 0,1.68935c0,0.84467 0,1.26701 0,1.68935c0,0.84467 0,1.26701 0,2.11169c0,0.42234 -0.41475,0.84467 -0.41475,1.68935c0,0.42234 0,1.26701 0,1.68935c0,0.42234 -0.82954,0.42234 -0.82954,1.26701c0,0.42234 0.15872,1.29917 0,1.68935c-0.22448,0.55182 -0.41478,1.26702 -0.41478,1.68935c0,0.84467 -0.34196,0.88602 -0.82954,1.68935c-0.43611,0.71852 0,1.26702 0,2.11169c0,0.42234 0,0.84467 0,1.68935c0,0.42234 -0.41475,0.42234 -0.41475,1.26702c0,0.42234 0,0.84467 0,1.68934l0,0.42234" id="svg_19" stroke-width="15" stroke="#4C261D" fill="none"/>
  <path d="m229.45477,80.72989c-0.82955,0 -0.72806,0.4781 -1.65909,2.11169c-0.75062,1.31705 -1.41682,2.85546 -2.07385,4.22337c-1.15253,2.39949 -3.95911,7.00435 -5.80676,9.71377c-1.90727,2.79685 -3.77358,4.73561 -6.63631,9.29142c-1.49957,2.38645 -2.50799,4.20876 -3.73292,5.91273c-2.10746,2.93161 -3.39707,4.17334 -4.14769,5.49038c-0.4655,0.8168 -0.82955,1.68936 -1.65909,2.11169l-0.41477,0.84467" id="svg_24" stroke-width="5" stroke="#4C261D" fill="none"/>
  <path d="m229.86953,79.04055c-0.41475,0 -0.41475,0.42232 -1.65907,1.68934c-0.41477,0.42235 -1.79333,1.48671 -2.48862,2.11169c-1.12111,1.00777 -2.26649,2.30785 -3.73292,3.80104c-1.46643,1.49319 -2.78891,3.05043 -4.14769,4.64571c-1.53729,1.80486 -2.79123,3.47536 -4.56246,5.4904c-1.95599,2.22523 -3.12959,3.62563 -4.97724,6.33505c-1.90727,2.79685 -1.8649,4.18444 -2.07384,5.91273c-0.05068,0.41917 0.29329,1.39071 0,1.68934c-0.58657,0.59728 -0.53625,0.96838 -0.82954,1.26702c-0.29329,0.29864 0.17181,0.66973 -0.41477,1.26701c-0.2933,0.29865 -0.57136,-0.07156 -1.24432,0.42234c-1.06404,0.78092 -1.15714,1.72249 -1.65907,2.95637c-0.35492,0.87248 -1.24432,1.26701 -1.24432,1.68934l-0.41477,0.84469" id="svg_25" stroke-width="5" stroke="#4C261D" fill="none"/>
  <path d="m242.72737,65.10341c0,0.84467 0,1.26701 0,2.53402c0,1.26702 0.16347,2.54224 0,4.22337c-0.20839,2.14302 -1.57958,4.68783 -2.90339,7.17974c-2.74157,5.16063 -4.19419,7.56757 -5.392,9.29143c-0.86374,1.24308 -1.64919,3.70811 -3.31814,5.49038c-1.032,1.10207 -1.87186,2.78489 -2.48862,3.80104c-0.68956,1.13607 -0.60507,2.40456 -0.82954,2.95637c-0.31745,0.78038 -0.38061,1.00806 -0.82955,2.11168c-0.15873,0.39019 -0.90236,0.88603 -0.41477,1.68936c0.21806,0.35926 0.41477,-0.84467 1.65909,-1.68936l1.24432,-2.11168l0.41475,-0.84467" id="svg_26" stroke-width="5" stroke="#4C261D" fill="none"/>
  <path d="m244.38647,71.01613c0,0.84467 -1.63421,1.84788 -2.90339,4.22337c-0.62682,1.17318 -2.25197,3.63407 -4.14771,5.91273c-2.30625,2.7721 -6.07455,7.70852 -7.8806,10.13609c-2.3091,3.10373 -3.54719,4.75437 -4.56247,6.33507c-1.77312,2.76059 -2.53151,3.76148 -2.90339,4.22337c-0.94811,1.17762 -1.08558,2.56618 -1.2443,2.95637c-0.44894,1.10362 -1.01984,1.13752 -1.24432,1.68934c-0.31747,0.78038 -0.29329,1.56566 0,1.26702c0.29329,-0.29864 1.24432,-1.26702 2.48862,-2.11169l0.41477,-0.84467" id="svg_27" stroke-width="5" stroke="#4C261D" fill="none"/>
  <path d="m251.02276,78.19587c0,0.84467 0,1.26701 0,2.95637c0,1.68934 -0.2277,5.41184 -0.82954,7.60208c-0.67982,2.47396 -0.67779,5.21014 -1.65907,8.02441c-0.8092,2.32069 -1.73958,4.59864 -2.90339,6.7574c-1.33887,2.48353 -3.0631,6.91451 -4.14768,8.44675c-1.02892,1.45361 -1.60835,2.5619 -2.07385,3.3787c-0.75059,1.31705 -0.82954,2.11168 -1.24432,2.11168l0,-0.84467l0.41478,-0.42234l0,-1.26701" id="svg_28" stroke-width="5" stroke="#4C261D" fill="none"/>
  <path d="m251.43754,76.08419c-0.41478,0 -1.37299,0.30366 -2.48861,1.68934c-0.9481,1.17762 -1.94262,3.05313 -4.97724,7.17975c-1.59186,2.16466 -5.01723,6.47625 -6.63631,9.71376c-1.19038,2.38026 -2.16097,5.00503 -3.31814,6.7574c-1.34949,2.04362 -0.90751,5.75052 -3.31817,7.60208c-0.66224,0.50865 -0.82954,0.42234 -0.82954,0l1.24432,-1.26701l1.24429,-1.68936l1.6591,-2.95637" id="svg_29" stroke-width="5" stroke="#4C261D" fill="none"/>
  <path d="m260.56246,70.5938c0,0.42234 -0.07804,1.86117 -1.65907,4.64571c-1.03801,1.82814 -1.3389,3.91807 -2.07385,5.49038c-0.89128,1.90672 -1.41682,2.01078 -2.07385,3.3787c-0.57626,1.19974 -0.17538,2.72325 -0.82954,3.80104c-0.48758,0.80333 -0.87243,1.6498 -1.24429,2.11169c-0.9481,1.17762 -0.34748,1.9746 -1.6591,4.64571c-0.78696,1.60265 -2.84031,5.10171 -3.73292,6.7574c-1.1638,2.15875 -2.90336,5.06805 -2.90336,6.33507l-0.41478,1.26701l0,0.42234l0,0.84467" id="svg_30" stroke-width="5" stroke="#4C261D" fill="none"/>
  <path d="m248.53415,71.01613c-0.41475,0 -0.30519,0.94408 -2.90339,3.80104c-1.19562,1.3147 -2.9749,4.17113 -4.14768,5.91272c-2.21278,3.28605 -4.2289,6.28934 -5.80678,9.29143c-2.18811,4.16316 -4.53167,8.46489 -6.22153,11.40311c-2.44436,4.2501 -4.71135,7.2398 -6.63633,10.98078c-1.21746,2.36601 -2.90337,5.06805 -3.73292,7.17974l-0.82954,1.26701l-0.41477,0.42234l-0.82954,0.84467" id="svg_31" stroke-width="5" stroke="#4C261D" fill="none"/>
  <path d="m214.10829,79.88522c0.82954,-0.42234 1.2443,-0.84466 2.07385,-1.68934c0.41477,-0.42234 0.86207,-1.17826 2.07384,-1.68935c2.57057,-1.08419 3.70946,-1.75174 5.80678,-2.53403c1.23159,-0.45937 5.70603,-1.26148 8.29537,-1.68934c1.63768,-0.27061 2.07385,-0.42234 3.31817,-0.42234c2.48861,0 3.73292,-0.84467 7.05107,-0.84467c1.6591,0 4.15093,-0.31736 5.80678,-0.42234c3.33754,-0.21158 6.22153,-1.26702 7.46585,-1.68935l0.82954,0l0.41478,0l0.41475,-0.84468" id="svg_32" stroke-width="5" stroke="#4C261D" fill="none"/>
  <path d="m216.18214,82.84158c0.41477,0 0.89639,-0.31523 2.90337,-1.68934c1.72099,-1.17831 3.65294,-3.10764 6.63631,-4.64572c3.64451,-1.87893 6.59603,-3.44576 9.95447,-5.49039c2.8701,-1.74734 6.39449,-3.94686 11.61353,-5.91273c1.60393,-0.60416 3.77354,-1.19287 4.56249,-1.68935c0.70565,-0.44406 1.48725,-0.59728 2.07382,0c0.58657,0.59728 0.30975,1.42385 2.07385,2.53402c0.78892,0.49649 1.24432,0.42234 2.48861,0.42234l0.41478,0.84468l0.82954,0" id="svg_33" stroke-width="5" stroke="#4C261D" fill="none"/>
  <path d="m296.64742,85.37561c0.82954,0 0.69668,0.43324 0.82954,1.26701c0.2101,1.31829 0.62112,2.92503 0.82954,5.06805c0.24524,2.52169 0.71812,5.91491 0.82954,8.8691c0.20753,5.50255 0.00931,8.04973 0.41475,11.40311c0.41791,3.4566 1.8641,7.09658 2.48864,14.35948c0.1809,2.10363 -0.15701,5.13583 0.41475,7.60208c0.42617,1.83821 1.03536,3.33974 1.24432,5.06805c0.25339,2.09586 0.41478,2.95637 0.41478,5.06805c0,0.42234 0,0.84467 0,2.11169c0,0.84467 0,1.26701 0,1.68934l0,0.84467l0,0.42235" id="svg_34" stroke-width="5" stroke="#4C261D" fill="none"/>
  <path d="m304.9428,79.46288c0,0.42234 -0.44355,1.83684 1.24429,6.33507c0.33102,0.88218 1.01568,3.72681 2.07385,6.7574c1.01152,2.897 1.62381,4.97091 2.48861,9.29142c0.75008,3.74739 1.22378,7.18168 1.6591,11.82545c0.39607,4.22523 1.71002,10.55126 2.48861,16.47117c0.88772,6.74972 1.77479,13.07267 2.90339,20.2722c0.92457,5.89809 1.29077,10.61295 2.07385,14.78182c0.56726,3.01992 1.45128,5.47066 1.65907,8.86908c0.07732,1.26456 0.58657,1.93675 0,2.53403c-0.29329,0.29865 -1.05709,-1.16986 -1.65907,-2.95637c-0.68637,-2.03695 -1.24432,-5.06805 -1.24432,-7.17974l-0.41478,-2.95637l0,-0.84467" id="svg_35" stroke-width="5" stroke="#4C261D" fill="none"/>
  <path d="m309.50526,99.73509c0,0.84467 -0.27161,3.0311 0.41475,5.06805c0.90299,2.67978 2.83911,8.35575 3.73292,12.67012c0.69024,3.33168 1.54999,6.79626 2.90339,10.55844c1.53652,4.27118 3.08965,7.53107 4.56246,11.82545c1.4277,4.16279 2.8407,8.88876 4.14771,13.09247c1.18764,3.81979 2.31986,7.96408 2.90339,10.98076c0.72584,3.75233 1.42491,8.4852 2.07385,11.82546c0.91774,4.72383 2.28019,8.41541 2.48861,10.55843c0.24524,2.52169 0.12147,3.92475 0.41475,4.22337c0.58657,0.59729 -0.07812,0.02379 -0.41475,-1.26701c-0.54283,-2.08136 -1.12146,-3.82163 -1.65907,-6.7574c-1.01434,-5.5392 -1.6591,-8.02441 -2.48864,-12.67012l-0.41475,-4.22337l-0.82954,-2.95637" id="svg_36" stroke-width="5" stroke="#4C261D" fill="none"/>
  <path d="m321.53357,104.80314c0,0.84467 0.1154,1.2452 0.82954,5.49038c0.49518,2.9435 2.109,7.50082 2.90339,12.2478c0.97789,5.84355 2.48553,11.71616 3.31814,21.53921c0.03566,0.42077 0.51777,4.70878 1.24432,7.60208c0.87789,3.49598 0.86545,5.22881 1.65907,7.17974c0.44893,1.10362 0.82954,1.68936 0.82954,2.11169c0,0.84467 0,0 0,-0.42234l0,-2.53403" id="svg_37" stroke-width="5" stroke="#4C261D" fill="none"/>
  <path d="m335.22095,110.29352c0.41478,0 0.87864,1.24294 1.65907,2.95637c1.32907,2.91787 2.01117,5.93241 3.31817,10.13611c1.18764,3.81979 1.55221,9.31253 2.48861,13.93713c1.11741,5.51863 3.13442,15.57343 4.14771,20.69455c1.07748,5.44555 2.90339,10.13611 3.73292,14.35948c0.82954,4.22337 2.27968,7.56313 2.48861,9.29142c0.15203,1.25751 0.41478,1.68936 0.41478,1.26701c0,-1.68934 -0.41478,-4.22337 -0.41478,-7.17973l-0.41475,-3.3787l0,-3.80104" id="svg_38" stroke-width="5" stroke="#4C261D" fill="none"/>
  <path d="m350.15265,126.7647c0,0.42234 -0.0796,2.53557 0,4.64571c0.20753,5.50255 1.66685,8.35823 2.48864,13.51479c0.86625,5.43551 0.96325,12.6426 2.07382,18.58285c1.41545,7.57097 2.50686,15.2007 3.73292,21.96156c0.84207,4.64338 2.23935,9.2484 2.90339,12.24779c0.55485,2.50609 0.60509,4.09393 0.82954,4.64571c0.31744,0.78038 0,0 0,-1.26699l0,-2.11169l0,-1.68936" id="svg_39" stroke-width="5" stroke="#4C261D" fill="none"/>
  <path d="m368.81728,152.94963c0.41478,0.84467 0.99834,3.45138 2.07385,6.75739c1.69555,5.21188 2.83,10.15055 4.14771,16.89351c1.57169,8.04262 2.79101,16.91606 4.56246,25.76258c1.95042,9.74025 3.301,18.48186 4.97721,26.18494c1.09155,5.0163 1.14609,9.43648 2.07385,11.82544c0.54995,1.41608 0.82954,0.42235 0.82954,0l0,-2.95637l0,-0.84467l0,-3.37869" id="svg_40" stroke-width="5" stroke="#4C261D" fill="none"/>
  <path d="m398.26592,182.93558c0,0.42235 1.34485,2.49739 2.48861,5.91273c1.82078,5.43698 3.71034,10.67129 5.80678,18.1605c2.40918,8.60642 4.96599,17.31918 7.8806,27.45197c2.06588,7.1821 4.1067,13.86823 4.97724,19.84986c0.73213,5.03065 0.8908,8.0005 1.65907,10.13609c0.45115,1.25406 0.49652,0.84055 0.41478,0c-0.20842,-2.14304 -1.24432,-5.91273 -1.65907,-8.8691l-0.41478,-4.22336" id="svg_41" stroke-width="5" stroke="#4C261D" fill="none"/>
  <path d="m419.83393,210.80985c0,0.42235 -0.16592,1.7097 0.41475,5.91273c0.64598,4.67584 1.83536,10.16703 2.90339,17.7382c1.01802,7.21658 2.52845,14.77336 4.14771,22.80623c1.70097,8.43811 3.82987,14.75448 5.392,20.69453c1.32705,5.04622 2.4832,8.7665 2.90339,11.40311c0.06644,0.41687 0,1.26699 0,0.42232c0,-0.42232 -0.82954,-3.37869 -0.82954,-5.06803l-0.41478,-4.22339l-0.41475,-4.22336l-0.82956,-0.42235" id="svg_42" stroke-width="5" stroke="#4C261D" fill="none"/>
  <path d="m433.10653,231.92674c0,0.84467 0.55795,1.76408 1.24432,3.80104c1.20396,3.57304 2.83,7.6231 4.14771,12.24779c1.57192,5.51692 4.31343,11.78284 5.80675,18.16052c1.86774,7.97675 3.34645,14.35313 4.97724,21.96156c1.2663,5.90789 2.24584,13.1216 2.90339,17.73817c0.60711,4.26242 0.76352,6.8299 1.24432,8.44678c0.43335,1.4574 0.82954,0.42232 0,-0.8447l-0.41478,-2.95634l-1.24432,-3.80104l-0.41475,-2.11169" id="svg_43" stroke-width="5" stroke="#4C261D" fill="none"/>
  <path d="m450.11208,242.48518c0,0.84467 0.24256,2.18274 1.65907,5.49038c1.11217,2.59697 2.846,7.6184 4.14771,12.24779c1.19194,4.23902 1.35909,8.48857 2.07385,12.67014c0.58649,3.43112 0.82954,5.91273 0.82954,8.02443c0,2.11167 0,3.80104 0,5.06803c0,0.42235 0.2502,-0.02587 0,-1.26699c-0.63513,-3.15075 -2.48861,-5.91273 -2.90339,-9.71377l-0.82954,-0.84467" id="svg_44" stroke-width="5" stroke="#4C261D" fill="none"/>
  <path d="m450.52687,224.74701c0.82954,1.26699 1.14606,4.24569 2.48861,10.13609c0.38662,1.69625 1.451,4.61952 1.65907,7.17975c0.23946,2.94627 0.41478,4.22336 0.41478,6.33505c0,2.11169 0,4.22336 0,6.7574c0,2.11169 0.20272,4.65835 0,6.33505c-0.20896,1.72829 -0.62061,2.91742 -0.82954,4.64571c-0.25339,2.09586 0.25455,3.42393 -1.24432,5.49038c-0.551,0.75965 -0.82954,1.26702 -1.24432,1.26702c-0.41475,0 -1.24429,0 -2.48861,-1.26702l-2.90339,-2.53402l-2.07385,-2.11169l-3.73292,-3.80104" id="svg_45" stroke-width="5" stroke="#4C261D" fill="none"/>
  <path d="m399.51021,200.25143c0,0.42234 -0.64897,0.97788 0.41478,4.64572c0.52534,1.8114 1.20026,5.92193 2.07385,10.13609c0.78978,3.8098 1.13587,8.10409 2.07385,12.67014c0.80564,3.92176 1.65907,8.44675 1.65907,11.40311c0,2.53402 0,3.37869 0,4.64571c0,0.84467 0.05069,-0.00316 0,-0.42235c-0.20896,-1.72829 -1.65907,-4.22336 -2.90339,-7.17973l-0.41478,-1.26702" id="svg_46" stroke-width="5" stroke="#4C261D" fill="none"/>
  <path d="m392.04436,188.84831c0,0.42234 -0.29403,1.27764 0,5.49038c0.2079,2.97887 1.3872,7.62839 2.07385,13.51482c0.59517,5.10208 1.65788,10.50998 2.07385,16.04882c0.37952,5.05327 0.41478,9.29142 0.41478,12.67011c0,3.80104 -0.65774,4.82066 -1.24432,4.22339c-0.87986,-0.89591 -2.36893,-4.91471 -3.31817,-7.17975c-1.85612,-4.42897 -2.90336,-9.29142 -4.14768,-14.7818l-1.24432,-3.80104" id="svg_47" stroke-width="5" stroke="#4C261D" fill="none"/>
  <path d="m377.52744,171.53247c0,0.84469 0.68158,2.88147 1.24432,5.4904c1.61145,7.47078 1.45328,10.56588 1.65907,13.51479c0.2079,2.97887 0.41475,5.4904 0.41475,7.60208c0,1.26702 0.80735,3.60699 0,3.80105c-0.90264,0.21698 -1.79122,-2.89345 -2.90336,-5.4904c-1.41651,-3.30765 -1.6591,-5.06805 -2.90339,-8.86908l-1.24432,-2.11169l-0.82954,-4.22337" id="svg_48" stroke-width="5" stroke="#4C261D" fill="none"/>
  <path d="m358.86282,133.94444c0,0.42234 0.18042,2.96206 0,5.91272c-0.20779,3.39842 0.29115,6.40365 -0.41478,10.13611c-0.42239,2.2333 -1.0365,5.89301 -1.24429,9.29142c-0.18039,2.95065 -0.60016,7.18621 -0.82954,11.40311c-0.2077,3.81858 -0.41478,7.60208 -0.41478,10.55844c0,1.68934 0.87986,3.32746 0,4.22337c-0.29329,0.29865 -0.41478,-1.26701 -1.65907,-4.22337l-0.82954,-2.53403l0,-1.26701" id="svg_49" stroke-width="5" stroke="#4C261D" fill="none"/>
  <path d="m345.59019,129.72105c0,0.42235 -0.32493,3.01442 0.41478,6.33507c0.8704,3.90738 2.07072,7.94652 2.48861,11.40311c0.55747,4.6109 0.82786,10.07902 1.24432,14.78182c0.48422,5.4682 0,11.40311 0,16.04882c0,4.64571 0,8.02441 0,10.98078c0,2.11169 -0.41478,4.22337 0,4.22337c0.41478,0 0,-1.26701 -2.07385,-5.91272l-0.41478,-2.95637l-1.24429,-4.64571" id="svg_50" stroke-width="5" stroke="#4C261D" fill="none"/>
  <path d="m332.73235,114.5169c0,-0.84467 0,0 0,0.42235c0,2.53402 0,5.91272 0,10.13609c0,3.3787 0.41475,10.55844 0.41475,10.98078c0,4.22337 0,8.02441 0,11.40311c0,2.95637 0,4.64571 0,5.91273c0,0.42234 0.19059,1.24442 0,0.42234c-0.21309,-0.9191 -1.65907,-3.3787 -2.90336,-6.7574l-1.6591,-5.06805l-1.65907,-3.80104l0,-1.26702" id="svg_51" stroke-width="5" stroke="#4C261D" fill="none"/>
  <path d="m312.40865,84.10859c0,0.84469 -0.16914,2.96027 0,6.7574c0.20759,4.66008 1.68146,9.19242 2.48861,13.93714c0.92301,5.4258 0.177,10.16012 0.82954,15.62649c0.60884,5.10041 0.82954,9.71377 0.82954,13.93714c0,4.64571 0.20688,8.42424 0.41478,11.40311c0.20582,2.94891 0.40934,4.96546 0.82954,7.60208c0.1993,1.25065 0,2.53402 0,3.3787l0,-0.42235l0,-1.26701" id="svg_52" stroke-width="5" stroke="#4C261D" fill="none"/>
  <path d="m312.40865,119.58496c0.41475,2.95637 1.38845,5.8669 2.48861,9.71376c0.95627,3.3438 2.51019,6.66662 3.31814,11.82545c0.9168,5.85383 1.40657,11.04178 2.90339,16.89351c1.42192,5.55895 2.52452,10.6603 4.56246,17.73818c2.1037,7.30625 4.09485,12.68388 5.39202,17.73817c1.1957,4.65892 2.07382,8.86908 3.31814,11.82545c1.24432,2.95637 1.88361,4.52014 2.48861,5.91273c0.69184,1.59249 0.41478,2.53402 0.41478,3.80104c0,0.42235 0.82954,0.42235 0.82954,0c0,-0.84467 -0.82954,-4.22339 -0.82954,-5.49038l0,-5.49038l-0.41478,-0.8447" id="svg_53" stroke-width="5" stroke="#4C261D" fill="none"/>
  <path d="m338.53912,160.97404c0,0.84467 0.48202,2.50558 1.65907,5.49038c1.3205,3.34859 2.71329,8.07677 4.14768,13.09247c1.46686,5.12915 3.55917,12.1658 5.39202,18.1605c1.914,6.26009 3.97318,13.0161 5.80675,19.42754c1.91254,6.6876 2.54625,11.51546 3.73292,14.7818c0.64356,1.77144 0.41478,3.80104 1.24432,3.80104c0.82954,0 0.0401,-1.27413 -0.41475,-3.80104c-0.76255,-4.23644 -1.24432,-7.60208 -1.6591,-10.98076l-0.82954,-5.49038" id="svg_54" stroke-width="5" stroke="#4C261D" fill="none"/>
  <path d="m360.10714,168.15378c0,0.42234 -0.0276,1.27429 0.41475,2.95635c0.78103,2.97002 1.56087,6.35738 2.90339,12.2478c1.15982,5.08878 1.96136,9.64659 2.90339,14.7818c1.22806,6.69423 1.80785,13.06739 2.90339,20.2722c0.96037,6.31588 1.24429,13.09249 1.24429,17.7382c0,3.37869 0.87983,6.28384 0,7.17973c-0.29329,0.29864 -1.2135,-1.28515 -2.90336,-4.22336c-2.44438,-4.2501 -4.56249,-9.29145 -7.46585,-16.47117l-2.90339,-6.7574l-3.73292,-8.0244l0,-0.8447" id="svg_55" stroke-width="5" stroke="#4C261D" fill="none"/>
  <path d="m333.1471,153.37196c0,0.42234 0.82956,2.95635 2.07385,5.49038c3.31814,6.75742 5.28998,10.79285 7.88063,15.62649c2.84486,5.30796 5.57321,11.51962 8.71014,17.73818c3.47891,6.89652 7.34817,12.47859 11.19877,19.00519c3.15367,5.34533 6.17804,10.59197 9.95448,15.6265c2.87052,3.82682 5.30903,8.35404 7.8806,11.82544c1.41295,1.90733 4.12911,3.18831 4.56249,4.64571c0.12021,0.40423 0,0 0,-1.26699l0.82954,-2.53404" id="svg_56" stroke-width="5" stroke="#4C261D" fill="none"/>
  <path d="m396.60685,191.80468c0.41475,0 0.25176,0.49655 1.24429,2.53402c1.07469,2.20615 1.65907,3.80104 2.90339,7.60209c1.65907,5.06803 3.6961,10.43606 4.97724,15.20415c1.78179,6.63143 2.31593,12.68786 2.90339,17.73817c0.64168,5.51642 1.39629,11.3751 2.07382,15.6265c0.53565,3.36103 1.23891,6.23248 1.6591,8.86907c0.13289,0.83377 0,1.68937 0,0.84467c0,-1.68934 -0.82954,-5.06803 -0.82954,-8.86907l0,-0.84467" id="svg_57" stroke-width="5" stroke="#4C261D" fill="none"/>
  <path d="m412.78284,212.92155c0,0.84467 0.68725,2.98795 1.65907,7.17975c1.08654,4.68657 2.38249,10.16216 3.73292,15.62647c1.15406,4.66981 2.02829,9.72389 3.31817,15.6265c1.20194,5.50015 2.71636,11.46088 4.56246,17.31585c1.88486,5.97792 2.48861,10.13609 2.48861,12.24779c0,1.26699 -0.36158,1.22918 -1.24429,0c-1.56762,-2.18295 -6.22156,-8.02443 -9.95448,-13.93716l-0.82954,-1.26699" id="svg_58" stroke-width="5" stroke="#4C261D" fill="none"/>
  <path d="m368.81728,196.02805c0,0.42234 -0.34361,1.73912 0.41478,5.91273c0.86041,4.735 2.54004,10.12139 4.14768,16.04882c1.71407,6.31986 3.60223,13.42563 5.39202,19.84986c1.97688,7.0958 3.42352,13.06482 4.97721,19.42754c1.33525,5.4682 1.90545,9.92674 2.90339,11.82544c0.55356,1.05321 0.82954,1.26702 0.82954,0.84467c0,-0.84467 -1.24429,-2.95637 -2.07382,-5.91273l-1.6591,-4.64571l-1.65907,-5.49038l-0.41475,-1.68934" id="svg_59" stroke-width="5" stroke="#4C261D" fill="none"/>
  <path d="m350.15265,172.79949c0,0.84467 0.23214,2.89828 1.24432,7.60208c0.53998,2.50944 2.24428,11.77195 3.31814,15.62649c1.97688,7.0958 2.64992,12.31759 4.56246,19.00519c1.83357,6.41144 3.2247,12.31237 4.14771,17.73817c0.80715,4.74474 1.65907,8.02443 1.65907,9.29145c0,0.42232 0.28588,-0.0339 0,-1.26702c-0.85235,-3.67646 -3.31814,-7.60208 -5.80678,-13.09246l-2.07382,-5.91273" id="svg_60" stroke-width="5" stroke="#4C261D" fill="none"/>
  <path d="m341.02773,181.66857c0,0.84467 0.61915,1.82553 3.31814,5.91273c1.1572,1.75237 2.89248,4.65049 4.14771,7.60208c2.87844,6.76845 5.31647,11.21421 7.46585,15.62647c1.98505,4.07497 4.23648,9.43987 6.22153,13.51481c2.14941,4.41229 3.77701,7.43017 5.80678,10.13612c1.78023,2.37327 3.60576,4.41713 4.14771,4.64571c0.7664,0.32323 0.82954,-0.42235 0.82954,-1.68937l0,-1.68934" id="svg_61" stroke-width="5" stroke="#4C261D" fill="none"/>
  <path d="m376.28312,201.09611c0.41478,0.84467 1.94492,2.30756 4.14771,5.49038c1.9263,2.7833 3.62909,6.10871 6.22153,10.13609c2.84896,4.42589 5.75853,10.16799 9.5397,16.04882c3.27656,5.09602 7.47536,12.24262 10.78399,18.58287c3.74369,7.17393 7.38038,14.81872 8.29541,16.8935c1.51975,3.44597 3.14094,7.71277 4.97721,10.55844c1.13883,1.7648 2.07388,3.37869 2.48864,3.37869c0.41475,0 0,-1.26699 -1.6591,-10.13609l-1.24429,-3.37869l0,-1.68937" id="svg_62" stroke-width="5" stroke="#4C261D" fill="none"/>
  <path d="m418.17483,215.87791c0,0.84467 -0.15465,2.96127 0,5.49038c0.20779,3.39844 1.4095,7.63899 2.07385,11.40311c0.90749,5.14166 2.32815,9.74129 3.73292,17.7382c1.11715,6.35959 2.61697,14.80636 3.31817,21.53921c0.88459,8.49361 2.07337,16.01872 2.48861,24.91792c0.33464,7.17163 0,13.51481 0,19.00519c0,4.64571 0,7.17973 0,8.44675l-0.82954,-0.84467l0,-0.42235l-2.07385,-5.49038" id="svg_63" stroke-width="5" stroke="#4C261D" fill="none"/>
  <path d="m409.87945,250.50961c0.82954,0 1.27533,0.07363 3.73292,3.80104c0.51697,0.78406 4.00613,5.66218 6.22156,8.44675c6.22797,7.8279 7.97114,12.45539 11.19877,17.31585c2.64898,3.98904 5.18822,7.45113 7.46585,10.98076c1.83627,2.84567 2.86975,5.51515 4.97721,8.44675c1.22492,1.70396 2.48861,2.9564 3.73292,4.22339c0.41478,0.42232 0.41478,0.84467 0.41478,0.42232c0,-0.42232 0,-2.53402 0,-4.64571l0,-0.84467" id="svg_64" stroke-width="5" stroke="#4C261D" fill="none"/>
  <path d="m451.3564,261.49037c0.41475,0 0.22137,1.73015 0.82954,4.22339c1.58087,6.48081 2.88004,8.72845 3.73292,11.82544c0.79189,2.87546 2.04637,7.60979 3.31814,12.24779c1.62407,5.9228 3.83312,10.95954 4.56249,14.78183c0.96242,5.04361 1.95099,8.88966 2.48861,11.82544c1.01437,5.53925 1.65907,7.17975 1.65907,8.02443l0,-0.84467l-0.41475,-1.68934l-1.24432,-2.95637" id="svg_65" stroke-width="5" stroke="#4C261D" fill="none"/>
  <path d="m441.8167,258.11168c0,0.42232 -0.50036,1.74111 0,4.22336c0.63513,3.15075 2.55462,6.73113 4.14771,10.98079c1.73127,4.61831 3.61451,10.01044 5.392,14.7818c2.00086,5.37096 2.74191,8.89099 3.31814,12.67014c0.32447,2.12802 -0.82951,5.06803 0.41478,5.06803c0.41475,0 -0.41478,-1.68934 -1.65907,-4.22336l-1.24432,-3.37872l-0.41478,-1.68934" id="svg_66" stroke-width="5" stroke="#4C261D" fill="none"/>
  <path d="m422.73732,240.79584c0,0.84467 0.26754,2.58102 1.24429,5.49038c1.44504,4.30418 3.55755,7.49083 4.97724,10.98079c1.50579,3.70166 3.44701,7.73608 4.97724,11.40311c1.33753,3.20533 1.29362,6.00368 2.07382,8.44675c0.57361,1.79618 1.06578,3.43486 1.6591,5.06803c0.64356,1.77144 0.77907,2.97727 2.48861,7.17975c1.20883,2.97159 1.89497,5.39863 2.90339,8.44675c0.54596,1.65022 0,3.37869 1.24429,3.37869c0.41475,0 0,-1.26699 0,-1.68934l-0.82954,-1.68934" id="svg_67" stroke-width="5" stroke="#4C261D" fill="none"/>
  <path d="m436.83946,245.0192c0,0.42235 -0.21255,1.32212 0.41478,3.37872c0.93696,3.0717 2.15701,6.83921 3.31814,10.98076c0.97282,3.46983 2.68085,7.54097 4.14771,12.67014c1.43439,5.01572 3.05818,9.65879 4.14771,13.09246c1.45396,4.58214 3.24469,8.72335 4.14768,11.40311c0.68637,2.03696 1.89494,4.55396 2.90339,7.60208c0.54596,1.65022 1.24432,4.64571 1.65907,4.64571l0,0.84467" id="svg_68" stroke-width="5" stroke="#4C261D" fill="none"/>
  <path d="m451.3564,252.62127c0,0.8447 0.30958,1.75743 1.65907,3.80104c1.1572,1.75239 4.12247,6.76784 4.97724,8.8691c1.2088,2.97159 2.90339,5.91273 4.14768,8.8691c1.24432,2.95637 1.84524,4.99382 2.90339,8.0244c1.01152,2.89703 1.34106,5.46211 2.48864,9.71377c0.4532,1.67908 0.79536,2.69743 1.24429,3.80104c0.31744,0.78038 -0.55476,0.71374 -1.24429,-0.42232c-0.92514,-1.52422 -2.48864,-2.95637 -3.73292,-5.49041l-0.41478,-0.84467" id="svg_69" stroke-width="5" stroke="#4C261D" fill="none"/>
  <path d="m438.49856,240.37349c0,0.42235 0.59646,1.56528 1.65907,3.37872c3.04283,5.19285 2.90339,7.60208 4.14768,10.55844c1.24432,2.95637 2.09812,5.75892 2.90339,8.86907c0.9575,3.69806 1.4582,7.20809 2.07385,10.98079c0.62682,3.84109 1.55167,7.48677 2.48861,10.55844c0.6273,2.05657 0.82193,4.10174 1.24432,6.33505c0.15687,0.82942 0,0 -0.82954,-1.26702l-1.65907,-3.37869l-0.41478,-0.42235l-0.82954,-0.84467" id="svg_70" stroke-width="5" stroke="#4C261D" fill="none"/>
  <path d="m420.24869,218.41193c0.82954,0 0.86514,0.40739 2.90339,5.49041c0.84432,2.10558 2.63189,5.83177 3.73292,8.0244c1.43807,2.8638 2.60925,6.54637 4.14771,11.40311c1.29846,4.09907 2.07385,8.02443 3.73292,13.09246c1.24432,3.80104 4.37535,11.74693 4.97721,13.93716c0.67982,2.47396 1.22572,4.03295 1.6591,5.49038c0.12019,0.40423 -0.17569,0.51985 -0.82956,0c-1.34793,-1.07165 -0.41475,-2.95637 -0.82954,-5.49038l0,-0.42235" id="svg_71" stroke-width="5" stroke="#4C261D" fill="none"/>
  <path d="m354.30036,147.88157c0.41475,1.26702 0.88348,2.6878 2.07385,5.06806c1.61906,3.23747 3.80361,5.88154 5.392,9.71376c1.73699,4.19076 4.0022,8.92089 5.80678,13.93714c2.3048,6.40676 4.34282,12.32165 6.22153,17.73817c2.23149,6.43361 4.26473,12.20143 6.63631,18.58285c2.18231,5.87213 3.6949,11.08876 4.97724,15.6265c0.61767,2.18567 1.6249,3.96442 2.07382,5.06803c0.47618,1.17057 0,2.11169 0,1.26702l-1.24429,-2.95637l0,-1.68934" id="svg_72" stroke-width="5" stroke="#4C261D" fill="none"/>
  <path d="m380.84559,178.28987c0,0.42234 1.10428,5.096 1.6591,7.60208c0.66404,2.9994 1.28402,6.3263 2.07382,10.13611c0.87362,4.21415 1.29077,7.6566 2.07385,11.82546c0.56726,3.0199 1.83115,5.87367 2.48864,9.29142c0.56379,2.93067 1.531,6.78774 2.07382,8.86907c1.00996,3.87244 2.21702,6.83214 2.90339,8.8691c0.60198,1.78652 1.38791,3.67666 2.07385,4.64571c0.54229,0.76611 0.41478,1.26702 0.41478,0.84467l-0.41478,-0.84467l-0.82954,-1.68934" id="svg_73" stroke-width="5" stroke="#4C261D" fill="none"/>
  <path d="m331.48803,114.5169c0,0.42235 -0.34518,2.13618 0,4.64572c0.41883,3.04493 1.09528,5.93841 1.65907,8.86908c0.65749,3.41774 0.98985,7.66838 2.48864,13.09246c1.06575,3.85688 3.81238,14.83547 4.56246,18.58285c0.86479,4.32051 2.22357,8.50682 2.90339,10.98078c0.60187,2.19024 0.66113,4.01404 1.65907,5.91273c0.55356,1.05319 0.82954,1.68934 0.82954,0.84467l0,-0.42234" id="svg_74" stroke-width="5" stroke="#4C261D" fill="none"/>
  <path d="m80.13777,336.66646c0.41477,0 0.95104,-0.12368 1.24431,-0.42232c0.29329,-0.29864 0.65773,-0.24742 1.2443,-0.8447c0.29327,-0.29864 -0.1718,-0.66972 0.41477,-1.26699c0.29329,-0.29864 1.2443,0 1.65907,0c0.82954,0 0.95102,0.54603 1.24431,0.84467c0.29327,0.29864 0.41477,0.42232 0.41477,1.26702c0,0.42232 0,0.84467 0,1.68934c0,0.42232 -0.28723,1.34555 -0.82954,2.11169c-0.68595,0.96908 -1.42804,1.95907 -2.07385,2.95634c-1.22958,1.89872 -1.36581,2.65773 -1.65908,2.95637c-0.29329,0.29864 -0.41477,-0.42232 -0.41477,-0.84467c0,-0.84467 -0.19396,-1.35101 0.41477,-2.53402c0.96249,-1.87048 2.33446,-3.13576 3.73292,-4.22339c2.65747,-2.0668 3.3507,-1.60058 4.56246,-2.11167c1.71372,-0.72279 2.92481,-0.57411 4.56247,-0.8447c1.29467,-0.21393 1.90204,-1.0196 2.48861,-0.42232c0.29327,0.29864 0.10639,1.18127 0.41477,1.68934c0.68957,1.13609 0.41477,2.95637 0.41477,6.33505c0,0.8447 0,1.26702 0,2.11169c0,0.84467 0.27478,1.82028 -0.41477,2.95637c-0.30838,0.50807 -1.36578,0.72099 -1.65908,0.42235c-0.29329,-0.29864 -0.63022,-0.43871 -0.82954,-1.68937c-0.2101,-1.31829 -0.62059,-2.49507 -0.82954,-4.22336c-0.15203,-1.25754 -0.15203,-2.96585 0,-4.22339c0.20895,-1.72829 0.85691,-2.90469 1.65907,-3.37869c1.29345,-0.76431 1.65908,-0.84467 1.65908,0c0,0.42232 0,1.68934 0,2.95637c0,1.26699 0,1.68934 0,2.95637c0,1.26699 -0.41477,1.68934 -0.41477,2.11167c0,0.8447 -0.53626,0.96838 -0.82954,1.26702c-0.29329,0.29864 -1.24431,0 -1.65908,0c-0.41477,0 -0.65774,0.17495 -1.24431,-0.42232c-0.58659,-0.59731 0.23939,-2.72327 -0.41477,-3.80104c-0.48759,-0.80335 -0.82954,-1.68937 -0.82954,-2.95637c0,-0.42235 -0.58659,-1.09207 0,-1.68937c0.58657,-0.59728 0.82954,0.8447 0.82954,1.26702c0,1.68934 0.36058,3.43309 0,4.64571c-0.43337,1.45743 -1.04499,2.97272 -1.24431,4.22339c-0.2101,1.31829 -1.24431,2.95637 -1.65908,3.37869c-0.82955,0.84467 -0.82954,1.26702 -1.2443,1.26702c-0.41477,0 0.02135,-0.5485 -0.41477,-1.26702c-0.48759,-0.80332 -0.95841,-1.72324 -1.2443,-2.95637c-0.42617,-1.83823 -0.82954,-2.95637 -0.82954,-4.64571c0,-0.42232 -0.1202,-1.70747 0,-2.11169c0.43337,-1.4574 0.84064,-2.01463 1.24431,-2.11167c0.90264,-0.21698 1.24431,-0.42235 1.65908,-0.42235c0.82954,0 1.45709,0.25088 2.07385,1.26702c0.68955,1.13606 0.61944,1.63804 0.82954,2.95637c0.19931,1.25064 0,2.11167 0,4.64571c0,0.42232 0.2748,1.82028 -0.41477,2.95637c-0.30837,0.50807 -1.00327,1.86624 -1.65908,2.53402c-0.65581,0.66777 -0.65773,1.09207 -1.2443,1.68934c-0.29329,0.29864 -1.36579,0.29864 -1.65908,0c-0.58657,-0.59728 -0.93594,-0.75892 -1.24431,-1.26699c-0.68957,-1.13609 -0.76814,-3.05282 -1.24431,-4.22339c-0.22447,-0.55183 -0.41477,-1.68934 -0.41477,-2.11169c0,-1.26699 -0.09529,-2.54533 0,-2.95637c0.21309,-0.91911 0.41477,-1.26699 1.24431,-1.26699c0.41477,0 0.82954,0 1.65908,0c0.41477,0 0.41477,0.42232 1.2443,1.26699c0.41477,0.42235 0.53626,0.54603 0.82954,0.84467c0.87987,0.89591 0,2.11169 0,2.53404c0,0.42232 0,1.26699 0,1.68934c0,0.84467 -0.12148,0.96838 -0.41477,1.26702c-0.29327,0.29864 0.1718,0.66972 -0.41477,1.26699c-0.58657,0.59728 -0.65773,-0.2474 -1.2443,-0.84467c-0.58657,-0.59728 -0.88939,-0.81686 -1.24431,-1.68934c-0.50194,-1.2339 -0.41477,-2.11169 -0.41477,-2.95637c0,-1.26702 0,-2.11169 0,-3.37869c0,-0.84467 0.42586,-1.16999 0.82954,-1.26702c0.90265,-0.21698 1.24431,-0.42235 2.07385,-0.42235c0.41477,0 0.46385,0.22307 0.82954,0.42235c1.31852,0.71852 1.79904,1.82028 2.48861,2.95637c0.30837,0.50807 1.15714,1.72246 1.65908,2.95637c0.70984,1.74497 0.82954,2.95637 0.82954,3.37869c0,1.26702 -0.14359,1.98729 -0.82954,2.95637c-0.54229,0.76611 -1.11678,1.34558 -1.65908,2.11169c-0.34297,0.48453 -1.40477,1.23222 -2.48861,1.68934c-0.3832,0.16161 -0.82954,0 -1.65908,0c-0.41477,0 -0.92687,-0.06429 -1.24431,-0.84467c-0.22447,-0.55183 -0.98612,-1.19545 -1.65908,-1.68934c-1.06405,-0.7809 -0.75672,-1.30835 -1.2443,-2.11169c-0.43611,-0.71852 -0.41477,-1.26702 -0.41477,-2.11169c0,-0.42232 0,-0.84467 0,-1.68934c0,-0.42235 0,-1.26702 0,-1.68934c0,-0.42235 0.4937,-0.3723 1.2443,-1.68934c0.46552,-0.81683 1.3161,-1.20482 1.65908,-1.68937c0.54228,-0.76611 1.24431,-1.26699 1.65908,-1.26699c0.82954,0 1.36579,-0.29864 1.65908,0c0.87985,0.89589 0.38492,1.94741 1.24431,2.95637c0.60767,0.71342 0.7631,1.6948 0.82954,2.11167c0.2101,1.31832 0.41477,2.53404 0.41477,3.80104c0,0.42235 -0.79536,1.00808 -1.2443,2.11169c-0.31745,0.78038 -0.79537,1.00808 -1.24431,2.11169c-0.15872,0.39016 -0.41477,0.42232 -0.82954,0.42232c-0.82954,0 -0.95103,-0.12368 -1.2443,-0.42232c-0.58657,-0.59728 -1.2443,-0.84467 -1.65908,-1.26702c-0.82954,-0.84467 -1.01984,-1.13751 -1.24431,-1.68934c-0.31744,-0.78038 -0.38059,-1.00808 -0.82954,-2.11169c-0.15872,-0.39016 0,-0.84467 0,-1.68934c0,-1.26702 -0.1202,-1.70747 0,-2.11169c0.43337,-1.4574 1.02625,-2.17477 1.2443,-2.53402c0.48759,-0.80335 1.44599,-1.6149 1.65908,-2.53402c0.09529,-0.41104 0.45537,-1.1929 1.24431,-1.68937c0.70565,-0.44407 0.89149,0.62262 1.24431,0.84467c0.78895,0.4965 -0.0614,1.78583 0.41477,2.95637c0.44894,1.10361 0.82954,1.68937 0.82954,2.95637c0,0.84467 -0.14359,1.98729 -0.82954,2.95637c-0.54229,0.76611 -0.41477,1.68934 -0.82954,2.11169c-0.82954,0.84467 -0.82954,1.26702 -1.2443,1.26702c-0.82954,0 -0.82954,0.42232 -1.24431,0.42232c-0.41477,0 -1.24431,0 -1.65908,0c-0.82954,0 -0.95103,-0.12368 -1.2443,-0.42232c-0.29329,-0.29864 -0.95102,-0.12371 -1.24431,-0.42235c-0.29329,-0.29864 -0.65774,-0.2474 -1.24431,-0.84467c-0.29329,-0.29864 -0.41477,-1.26702 -0.41477,-2.11169c0,-0.84467 0,-2.11169 0,-2.53402c0,-1.26702 0,-2.53404 0,-2.95637c0,-1.26702 0.20467,-1.63804 0.41477,-2.95637c0.06644,-0.4169 0.53627,-1.39071 0.82954,-1.68934c0.29329,-0.29864 0.65773,-0.2474 1.2443,-0.84467c0.29329,-0.29864 0.1215,-0.54603 0.41477,-0.84467c0.29329,-0.29864 0.65773,-0.24742 1.2443,-0.8447c0.29327,-0.29864 -0.17181,-0.66972 0.41477,-1.26699c0.58657,-0.59728 0.86111,-0.26074 1.24431,-0.42235c0.54191,-0.22855 1.24431,-0.42232 1.65908,-0.42232c0.82954,0 1.24431,0 1.65908,0c0.82954,0 1.24431,0 2.07385,0c0.41477,0 1.07251,-0.59728 1.65908,0c0.29327,0.29864 0.65774,-0.17495 1.24431,0.42232c0.29329,0.29864 0.53625,0.12371 0.82954,0.42235c0.58657,0.59728 0.24296,0.66972 0.82954,1.26699c0.58659,0.59731 0,1.26702 0,1.68937c0,0.84467 0,1.26699 0,2.11167c0,0.42235 0,0.8447 0,1.68937c0,0.42232 0,1.26699 0,1.68934c0,0.42232 0,1.26702 0,1.68934c0,0.84467 0,1.26702 0,1.68934c0,0.84467 -0.82954,0.84467 -0.82954,1.26702c0,0.84467 -0.41477,0.84467 -0.41477,1.26702c0,0.42232 -0.12147,1.39071 -0.41477,1.68934c-0.58657,0.59728 -1.02625,0.90775 -1.24431,1.26702c-0.4876,0.80332 -0.95102,0.96836 -1.24431,1.26699c-0.29329,0.29864 0.17181,0.66975 -0.41477,1.26702c-0.58657,0.59728 -0.95102,0.12368 -1.24431,0.42232c-0.29329,0.29864 -0.51209,0.48664 -0.82954,1.26702c-0.22447,0.55183 -0.24297,0.66975 -0.82954,1.26702c-0.58657,0.59728 -0.95102,0.12368 -1.2443,0.42232c-0.29329,0.29864 -0.24297,0.66975 -0.82954,1.26702c-0.29329,0.29864 -0.82954,0 -1.65908,0c-0.41477,0 -0.65773,-0.2474 -1.2443,-0.84467c-0.29329,-0.29864 -0.53625,-0.12371 -0.82954,-0.42235c-0.58657,-0.59728 -1.48727,0.59728 -2.07385,0c-0.29327,-0.29864 -0.12148,-0.96836 -0.41477,-1.26699c-0.29329,-0.29864 0,-1.26702 0,-1.68937l0,-0.42232l0,-0.84467l0,-0.42235" id="svg_81" stroke-width="5" stroke="#000000" fill="none"/>
  <path d="m103.77963,400.01708c0.82954,0 1.2443,0 2.07385,0c0.41477,0 0.82954,0 1.65908,0c0.41477,0 1.30625,0.22205 1.65908,0c0.78894,-0.49647 1.2443,-0.84467 1.65907,-0.84467c0.82955,0 1.25541,-0.32529 1.65909,-0.42232c0.90264,-0.21698 0.65773,-0.66975 1.2443,-1.26702c0.58657,-0.59728 1.33209,-0.30163 2.48862,-1.26702c0.45361,-0.37865 1.41803,-1.02157 2.07384,-1.68934c0.65582,-0.66777 0.98999,-0.80987 2.07385,-1.26702c0.3832,-0.16161 0.53623,-0.54603 0.82954,-0.84467c0.58657,-0.59728 0.84063,-0.74764 1.2443,-0.84467c0.90264,-0.21698 1.08558,-1.29915 1.24432,-1.68934c0.22446,-0.55183 1.2443,-1.26702 1.65907,-1.68934c0.82955,-0.84467 1.24432,-1.26702 1.65909,-1.68934c0.82955,-0.84467 1.32144,-1.98186 2.07384,-2.53404c0.47584,-0.34921 0.39342,-0.54847 0.82954,-1.26699c0.48759,-0.80335 1.24432,-0.42235 1.24432,-1.26702c0,-0.42235 0.53626,-0.54603 0.82954,-0.84467c0.29329,-0.29864 0.60507,-0.71519 0.82954,-1.26702c0.31744,-0.78038 0.63895,-0.86726 0.82954,-1.68934c0.21309,-0.91911 1.53157,-2.19025 2.07385,-2.95637c1.02892,-1.45361 2.07385,-2.11169 2.48862,-2.95637c0.41477,-0.84467 1.44598,-1.19258 1.65907,-2.11169c0.09529,-0.41101 0.53623,-0.54603 0.82954,-0.84467c0.29329,-0.29864 0.53625,-0.54603 0.82955,-0.84467c0.29327,-0.29864 0.82954,-0.42232 0.82954,-1.26702c0,-0.42232 0.25603,-0.45448 0.41477,-0.84467c0.44894,-1.10361 1.03122,-1.19255 1.2443,-2.11167c0.09529,-0.41104 -0.17181,-1.0921 0.41477,-1.68937c0.58659,-0.59728 1.03123,-0.34788 1.24432,-1.26699c0.09529,-0.41104 0.82954,-0.42235 0.82954,-0.84467c0,-0.8447 0.41477,-0.8447 0.41477,-1.26702c0,-0.84467 0.41477,-0.84467 0.41477,-1.26702c0,-0.42232 0.82954,-0.42232 0.82954,-1.26699c0,-0.42235 0.12148,-0.96838 0.41477,-1.26702c0.2933,-0.29864 0.24296,-0.2474 0.82955,-0.84467c0.58657,-0.59728 0.12148,-0.96838 0.41477,-1.26702c0.58657,-0.59728 0.12148,-0.96838 0.41477,-1.26702c0.29327,-0.29864 0.24296,-0.66972 0.82954,-1.26699c0.2933,-0.29864 0.12148,-0.96838 0.41477,-1.26702c0.29327,-0.29864 0.24296,-0.2474 0.82954,-0.84467c0.58657,-0.59728 0.12148,-0.96838 0.41478,-1.26702c0.58657,-0.59728 0.12148,-0.96836 0.41477,-1.26699c0.2933,-0.29864 0.24296,-0.66975 0.82954,-1.26702c0.2933,-0.29864 0,-1.26702 0.41477,-1.26702l0,-0.42232l0,-0.42235l0.82954,0" id="svg_87" stroke-width="9" stroke="#4C261D" fill="none"/>
  <path id="svg_88" d="m55.66638,117.47326" opacity="NaN" stroke-width="3" stroke="#000000" fill="none"/>
  <path d="m105.85347,399.17241c1.18656,0 1.77984,0 2.37311,0c1.18656,0 1.77984,0 2.96639,0c0.59329,0 0.34754,-0.44386 1.18656,-1.51544c0.83902,-1.07158 1.87016,0.57996 2.9664,0c0.77517,-0.41009 0.82279,-1.45306 2.3731,-2.27319c0.54812,-0.28996 0.59328,-0.75769 1.77983,-0.75769c0.59328,0 0.59328,-0.75775 1.18657,-0.75775c1.18655,0 1.36032,-0.97965 1.77983,-1.51544c0.41953,-0.53579 0.34753,-1.2016 1.18655,-2.27319c0.41951,-0.53579 0.76706,-0.2219 1.18655,-0.75769c0.83904,-1.07158 1.95705,0.03897 2.9664,-0.75775c1.12848,-0.89073 0.76706,-1.73734 1.18655,-2.27313c0.83902,-1.07158 1.36032,-0.9797 1.77983,-1.51549c0.41949,-0.53579 0.76704,-0.97965 1.18657,-1.51544c0.41951,-0.53579 0.76704,-0.97965 1.18655,-1.51544c0.41949,-0.53579 0.34753,-1.20155 1.18655,-2.27313c0.41951,-0.53579 0.9408,0.31384 1.77983,-0.75775c0.41953,-0.53579 -0.24573,-1.2016 0.5933,-2.27319c0.41951,-0.53579 0.22951,-1.45301 1.77983,-2.27313c0.54812,-0.28996 0.17378,-0.97965 0.59328,-1.51544c0.83902,-1.07158 1.36032,-0.9797 1.77983,-1.51549c0.41949,-0.53579 -0.24575,-1.20155 0.59328,-2.27313c0.83904,-1.07158 0.76708,-0.97965 1.18657,-1.51544c0.41951,-0.53579 0.9408,-0.44386 1.77983,-1.51544c0.41953,-0.53579 0.17376,-1.7374 0.59328,-2.27319c0.41953,-0.53579 0.17376,-0.97965 0.59328,-1.51544c0.83902,-1.07158 1.18655,-1.51544 1.18655,-2.27319c0,-1.51544 0.5933,-1.51544 0.5933,-2.27319c0,-0.75769 0.34753,-1.20155 1.18655,-2.27313c0.41951,-0.53579 -0.24575,-1.2016 0.59328,-2.27319c0.41951,-0.53579 1.08239,-0.07414 1.77983,-1.51544c0.62381,-1.28912 0.59328,-1.51544 0.59328,-2.27319l1.18657,-1.51544" id="svg_89" stroke-width="3" stroke="#000000" fill="none"/>
  <ellipse filter="url(#svg_95_blur)" transform="matrix(0.845795, -0.401597, 0.394401, 0.861228, -52.4234, 137.688)" ry="15.23912" rx="28.1792" id="svg_95" cy="182.9474" cx="258.40046" stroke-width="3" stroke="#000000" fill="#000000"/>
  <path d="m228.21045,189.23415c0,-0.94895 -0.29329,-1.5624 0,-1.8979c0.29329,-0.33551 0.65773,-0.27792 1.24432,-0.94895c0.29329,-0.33551 -0.17183,-0.75241 0.41475,-1.42344c0.58657,-0.67101 0.95103,-0.13895 1.24432,-0.47448c0.29329,-0.33551 0.12147,-1.08794 0.41475,-1.42343c0.29329,-0.33551 0.24296,-0.75241 0.82954,-1.42343c0.29329,-0.33552 0.65774,0.19652 1.24432,-0.47449c0.29329,-0.33551 0.17373,-0.67321 0.82954,-1.42343c0.65581,-0.75022 0.8082,-0.6162 1.24432,-1.42343c0.48758,-0.90251 0.95103,-0.61345 1.24432,-0.94895c0.29329,-0.33549 0.65772,-0.27795 1.24429,-0.94897c0.29329,-0.33551 -0.17179,-0.75241 0.41478,-1.42343c0.58657,-0.67101 0.951,-0.13899 1.24429,-0.47448c0.29329,-0.33551 -0.02133,-0.6162 0.41478,-1.42343c0.48758,-0.90251 0.95103,-1.08792 1.24432,-1.42344c0.29329,-0.33551 0.53625,-0.61345 0.82954,-0.94895c0.29329,-0.33549 0.53625,-0.61343 0.82954,-0.94895c0.29329,-0.33551 0.95103,-0.13895 1.24432,-0.47448c0.58657,-0.67103 0.82954,-0.94897 1.24429,-0.94897c0.41478,0 0.41478,-0.47448 1.24432,-0.47448c0.41475,0 1.24432,0 1.65907,0c0.41478,0 0.41478,-0.47448 1.24432,-0.47448c0.41475,0 1.24429,0 1.65907,0c0.41478,0 1.24432,0 1.65907,0c0.82954,0 0.65774,-0.27794 1.24432,-0.94895c0.29329,-0.33549 1.25542,0.10901 1.65907,0c0.90264,-0.24376 1.2759,-0.29291 1.65907,-0.47448c1.08383,-0.51357 1.24432,-0.94895 2.07385,-0.94895c0.41478,0 0.41478,-0.47448 0.82954,-0.47448c0.82954,0 1.48728,0.67101 2.07385,0c0.29329,-0.33552 0.41478,-0.47449 0.82954,-0.47449c0.82954,0 0.65774,-0.27794 1.24432,-0.94895c0.58657,-0.67101 1.24429,0 1.65907,0c0.82954,0 0.82954,-0.47448 1.24432,-0.47448c0.82954,0 1.24429,0 1.65907,0c0.82954,0 1.24432,0 2.07385,0c0.41475,0 0.82954,0 1.65907,0c0.41475,0 1.24432,0 1.65907,0c0.41478,0 0.41478,0.47448 1.24432,0.47448c0.41475,0 1.24429,0 1.65907,0c0.41478,0 0.65774,0.27794 1.24432,0.94895c0.29329,0.33549 0.41475,0.47449 0.41475,0.94897c0,0.94895 0,1.42343 0,2.37238c0,0.47448 0,0.94895 0,1.89792c0,0.47448 0,1.42343 0,1.8979c0,0.47448 0,1.42343 0,1.89792c0,0.94895 0.29329,1.5624 0,1.8979c-0.29329,0.33549 -0.12147,1.08792 -0.41475,1.42343c-0.58657,0.67101 -0.95103,0.61345 -1.24432,0.94897c-0.29329,0.33551 -0.1215,0.61343 -0.41478,0.94895c-0.58657,0.67101 -0.53625,1.08792 -0.82954,1.42343c-0.29329,0.33549 -0.65772,0.27794 -1.24429,0.94895c-0.29329,0.33551 -0.1215,0.61345 -0.41478,0.94897c-0.29329,0.33549 -0.65772,0.27792 -1.24432,0.94895c-0.29329,0.33551 0.17182,0.75241 -0.41475,1.42343c-0.58657,0.67101 -0.95103,0.13895 -1.24432,0.47448c-0.29329,0.33551 0.17182,0.75241 -0.41475,1.42344c-0.58657,0.67101 -0.95103,0.13895 -1.24432,0.47448c-0.58657,0.67101 -0.53625,1.08792 -0.82954,1.42343c-0.29329,0.33552 -0.53625,0.13897 -0.82954,0.47448c-0.58657,0.67101 -0.95103,0.61343 -1.24432,0.94895c-0.29329,0.33551 -0.24296,0.75241 -0.82954,1.42344c-0.29329,0.33552 -0.42589,0.36546 -0.82954,0.47448c-0.90264,0.24376 -0.65774,0.75241 -1.24432,1.42343c-0.58657,0.67101 -0.82954,0.47448 -1.24429,0.47448c-0.41478,0 -0.65774,0.27794 -1.24432,0.94895c-0.29329,0.33552 -0.65774,-0.19652 -1.24432,0.47449c-0.29329,0.33551 -0.41475,0.47448 -0.82954,0.47448c-0.82954,0 -0.82954,0.94895 -1.24432,0.94895c-0.82954,0 -0.951,0.13897 -1.24429,0.47448c-0.29329,0.33552 -1.36578,-0.33549 -1.65907,0c-0.58657,0.67101 -0.82956,0.94895 -1.24432,0.94895c-0.41478,0 -0.95103,0.13897 -1.24432,0.47448c-0.29329,0.33549 -1.24429,0 -1.65907,0c-0.41478,0 -0.41478,0.47448 -1.24432,0.47448c-0.41475,0 -1.36578,-0.33552 -1.65907,0c-0.58657,0.67103 -0.41475,0.94897 -1.24432,0.94897c-0.41475,0 -1.36578,-0.33552 -1.65907,0c-0.29329,0.33551 -0.41475,0.47448 -1.24429,0.47448c-0.41478,0 -1.36581,-0.33552 -1.6591,0c-0.58657,0.67101 -0.41475,0.94895 -1.24429,0.94895c-0.41478,0 -1.24432,0 -1.6591,0c-0.41475,0 -0.41475,0.47448 -1.24429,0.47448c-0.41478,0 -1.24432,0 -1.65907,0c-0.41478,0 -1.24432,0 -1.6591,0c-0.82954,0 -1.24429,0 -1.65907,0c-0.82954,0 -1.24432,0 -2.07385,0c-0.41475,0 -0.82954,0 -1.65907,0c-0.41475,0 -1.11715,-0.2177 -1.65907,-0.47448c-0.3832,-0.18157 -1.24432,0 -1.65909,0c-0.82954,0 -0.65773,-0.27794 -1.2443,-0.94895c-0.29329,-0.33551 -1.2443,0 -1.65907,0c-0.82955,0 -0.95103,-0.13897 -1.24432,-0.47448c-0.58659,-0.67103 -0.41477,-0.94897 -0.41477,-1.42344c0,-0.47448 0,-1.42343 0,-1.8979c0,-0.94895 0.12148,-1.08792 0.41477,-1.42343c0.2933,-0.33552 -0.29329,-1.56241 0,-1.89792c0.29329,-0.33551 0.65773,-0.27792 1.24432,-0.94895c0.29329,-0.33551 0.12148,-0.61345 0.41477,-0.94895c0.58657,-0.67101 0.82954,-0.94897 1.2443,-0.94897c0.41477,0 0.53866,0.02442 1.2443,-0.47448c0.78894,-0.55778 1.24432,-0.94895 1.65909,-0.94895c0.41477,0 0.41477,-0.47448 0.41477,-0.94895l0.82955,0" id="svg_98" stroke-width="5" stroke="#000000" fill="#000000"/>
  <path transform="rotate(8, 264.661, 178.437)" filter="url(#svg_103_blur)" stroke-width="4" d="m258.6709,169.22432c0,0.84467 0,1.26701 0,1.68934c0,0.84467 0,2.53403 0,3.80104c0,0.42234 -0.19059,1.28961 0,2.11169c0.21309,0.91911 0.41478,1.26701 0.41478,2.11168c0,0.42234 0,0.84469 0,1.68936c0,0.42234 0.24296,0.66973 0.82954,1.26701c0.29329,0.29864 0.1215,0.54602 0.41478,0.84467c0.58657,0.59729 0.65772,0.24741 1.24429,0.84469c0.29329,0.29864 0.41478,0.42234 1.24432,0.42234c0.41478,0 0.41478,-0.42234 0.82954,-0.42234c0.82954,0 0.65774,-0.2474 1.24432,-0.84469c0.58657,-0.59728 0.951,-0.1237 1.24429,-0.42234c0.29329,-0.29865 0.95103,-0.1237 1.24432,-0.42234c0.29329,-0.29865 0.75674,-0.46367 1.24432,-1.26701c0.43611,-0.71852 0.25601,-0.87682 0.41475,-1.26702c0.22448,-0.55182 0.1215,-1.39071 0.41478,-1.68934c0.58657,-0.59728 0.82954,-0.84467 0.82954,-1.26701c0,-0.42234 0.41478,-0.42234 0.41478,-1.26702c0,-0.42234 0,-1.26701 0,-1.68934c0,-0.42234 -0.29329,-1.39071 0,-1.68936c0.58657,-0.59728 0.82954,-0.84467 0.82954,-1.26701c0,-0.42234 -0.24296,-0.66973 -0.82954,-1.26701c-0.29329,-0.29865 -1.24432,0 -1.6591,0c-0.41475,0 -1.24429,0 -1.65907,0c-0.82954,0 -1.36578,0.29862 -1.65907,0c-0.29329,-0.29864 -0.82954,-0.42234 -1.24432,-0.42234c-0.82954,0 -0.82954,-0.84469 -1.24429,-0.84469c-0.41478,0 -0.41478,0.84469 -0.41478,1.26702c0,0.84467 -0.82954,0.84467 -1.24432,0.84467c-0.82954,0 -1.36578,0.29865 -1.65907,0c-0.58657,-0.59728 -0.95103,-0.54602 -1.24432,-0.84467c-0.29329,-0.29864 -0.82954,-0.42234 0,-0.42234c0.41478,0 1.24432,0 1.6591,0c0.41475,0 1.24429,0 1.24429,0.42234c0,0.84467 0.41478,0.84467 0.41478,1.26701c0,0.42234 0,1.26701 0,1.68936c0,0.84467 0,1.26701 0,1.68934c0,0.84467 0.82954,1.26701 0.82954,2.11169c0,0.42234 0,0.84467 0.41478,0.84467c0.41475,0 0.65772,0.17494 1.24429,-0.42234c0.29329,-0.29864 0.41478,-0.42234 0.41478,-1.26702c0,-0.42234 0.82954,-1.26701 0.82954,-1.68934c0,-0.42234 0.41475,-0.42234 0.41475,-1.26701c0,-0.42235 0,-1.26702 0,-0.42235c0,0.42235 0,1.26702 0,1.68936c0,0.42234 0.29329,1.39071 0,1.68934c-0.29329,0.29862 -0.12147,0.96838 -0.41475,1.26702c-0.58657,0.59728 -0.95103,0.12368 -1.24432,0.42234c-0.58657,0.59728 -0.73424,0.85597 -0.82954,1.26701c-0.21309,0.9191 -0.53625,0.96836 -0.82954,1.26701c-0.29329,0.29865 -0.24296,0.66975 -0.82954,1.26702c-0.29329,0.29865 -0.41478,0.42234 -0.41478,1.26701c0,0.42234 -0.24296,0.2474 -0.82954,0.84467c-0.58657,0.59729 -0.12147,0.9684 -0.41475,1.26702c-0.58657,0.59728 -0.1215,0.96836 -0.41478,1.26701c-0.29329,0.29864 -0.82954,0.42234 -0.82954,1.26701c0,0.42234 -0.41478,0.42234 -0.41478,1.26702c0,0.42234 -1.12282,0.54603 -0.82954,0.84467c0.58657,0.59728 1.24432,0 2.07385,0c0.41478,0 0.82954,0 0.82954,-0.42234c0,-0.42234 0,-1.26702 0.82954,-1.26702l0,-0.42234l0,-0.84467" id="svg_103" stroke="#ffffff" fill="#ffffff"/>
  <path id="svg_11" d="m210.24115,88.65492c-49.40635,47.51297 -45.56364,73.22588 -45.67343,72.77872c0.10979,0.44716 2.85459,53.54989 -25.69131,98.26799c-28.54589,44.71809 -61.48346,65.95919 -61.59326,65.51204c0.10979,0.44715 -38.31737,107.77057 81.90476,68.64224c120.22213,-39.12833 139.43571,-124.65168 139.32593,-125.09883" opacity="undefined" stroke-width="14" stroke="#3d2019" fill="none"/>
  <path d="m73.61539,323.61539c0,-0.38461 0.22531,-0.60992 0.76923,-1.15384c0.27197,-0.27197 0.88188,-0.11264 1.15385,-0.38461c0.27197,-0.27197 0.49726,-0.11264 0.76923,-0.38461c0.54392,-0.54391 0.49727,-0.88187 0.76923,-1.15384c0.27197,-0.27197 0.60992,-0.22528 1.15385,-0.76923c0.27197,-0.27197 0.26669,-0.5611 0.76923,-0.76926c0.71067,-0.29437 0.76923,-0.76923 1.15385,-0.76923c0.76923,0 1.15385,0 1.15385,0.76923c0,0.38464 -0.31683,0.57166 -1.15385,0.76926c-0.37432,0.08838 -0.60992,0.22528 -1.15385,0.76923c-0.27197,0.27197 -0.03765,0.70169 -0.76923,1.15384c-0.65435,0.40442 -0.88188,0.11264 -1.15385,0.38461c-0.27197,0.27197 -0.88188,0.11264 -1.15385,0.38461c-0.54392,0.54391 -0.60992,0.22528 -1.15385,0.76923c-0.27197,0.27197 -0.38461,0.38461 -1.15385,0.38461c-0.38461,0 -0.49727,0.49728 -0.76923,0.76926c-0.27197,0.27197 -0.49726,0.49725 -0.76923,0.76923c-0.27197,0.27197 -0.60992,0.22531 -1.15385,0.76923c-0.27197,0.27197 -0.92854,0.60992 -0.38461,1.15384c0.27197,0.27197 1.15384,0 1.53846,0c0.76923,0 1.26649,0.27197 1.53846,0c0.54392,-0.54391 0.76923,-0.76923 1.15385,-1.15384c0.76923,-0.76923 1.15385,-1.15384 1.53846,-1.53845c0.76924,-0.76926 0.60992,-1.37918 1.15385,-1.9231c0.54393,-0.54395 0.88188,-0.11264 1.15385,-0.38461c0.27197,-0.27197 -0.15931,-0.60992 0.38461,-1.15384c0.54393,-0.54395 0.76923,-0.38461 1.15385,-0.38461c0.76923,0 0.76923,-0.76923 1.15385,-0.76923c0.38462,0 0.27197,-0.65659 0,-0.38461c-0.27197,0.27197 -0.60992,0.60989 -1.15385,1.15384c-0.27197,0.27197 -0.1488,0.73755 -1.15385,1.15384c-0.35534,0.14719 -0.99453,-0.15933 -1.53846,0.38461c-0.27197,0.27197 0.15931,0.60992 -0.38461,1.15384c-0.54393,0.54395 -0.88188,0.11264 -1.15385,0.38461c-0.54395,0.54395 -0.38461,0.76926 -0.38461,1.15387c0,0.38461 -0.76923,0.38461 -0.76923,1.15384c0,0.38461 0.65133,0.20816 1.15385,0c0.35534,-0.14719 1.07577,-0.86789 1.53846,-1.15384c1.03461,-0.63943 2.31799,-1.06549 2.69231,-1.15387c0.83702,-0.1976 1.15385,-1.15384 1.53847,-1.15384c1.15384,0 2.42034,-0.11264 2.69231,-0.38461c0.27197,-0.27197 -0.11266,-0.27197 -0.38462,0c-0.27197,0.27197 -1.15385,0.38461 -1.53846,0.38461c-0.76923,0 -0.80688,0.31708 -1.53846,0.76923c-0.65435,0.40442 -1.17442,-0.17673 -1.92308,0c-0.83701,0.1976 -2.69231,1.15387 -3.07692,1.15387c-0.38461,0 -0.88188,0.11264 -1.15385,0.38461c-0.27197,0.27197 -1.03594,0.17645 -1.53846,0.38461c-0.35535,0.14719 -0.11266,0.88187 -0.38462,1.15384c-0.54392,0.54391 -0.88188,0.49725 -1.15385,0.76923c-0.27197,0.27197 -0.2253,0.22531 -0.76923,0.76923c-0.54392,0.54391 0,1.15384 -0.38461,1.15384l0,0.76926" id="svg_107" stroke-width="5" stroke="#3d2019" fill="none"/>
  <path d="m167.46155,147.46155c0,0.76923 0.11266,0.8819 0.38461,1.15385c0.54393,0.54393 0,1.15384 0,1.53845c0,0.76924 0,1.15385 0,1.92308c0,0.38461 0.2253,0.2253 0.76923,0.76923c0.54393,0.54393 0,1.15385 0,1.92308c0,0.38461 0,0.76923 0,1.53847c0,0.38461 0,1.15384 0,1.53845c0,0.38461 0,1.15385 0,1.53847c0,0.76923 0,1.15384 0,1.53847c0,0.76923 0,1.15384 0,1.92307c0,0.38461 0.54393,0.99454 0,1.53847c-0.54393,0.54393 -0.76923,0.38461 -0.76923,1.15384c0,0.38463 0.54393,0.99454 0,1.53847c-0.27196,0.27196 0.15932,0.60992 -0.38461,1.15385c-0.27196,0.27196 -0.11266,0.49727 -0.38461,0.76923c-0.54393,0.54393 -0.68088,0.77951 -0.76924,1.15384c-0.19759,0.83704 -0.60991,0.60992 -1.15384,1.15385c-0.27196,0.27196 0.15932,0.60991 -0.38461,1.15384c-0.27197,0.27197 -0.1488,0.73755 -1.15385,1.15385c-0.35533,0.14719 -1.15384,0 -1.53845,0c-0.38463,0 -1.15385,0 -1.53847,0c-0.76923,0 -0.88188,-0.49727 -1.15385,-0.76924c-0.27196,-0.27196 -0.17647,-1.03593 -0.38461,-1.53845c-0.14719,-0.35533 0,-1.15385 0,-1.53847c0,-0.76923 -0.76923,-1.15384 -0.76923,-1.53845c0,-0.76924 0,-1.15385 0,-1.92308c0,-0.38461 0,-0.76924 0,-1.53847c0,-0.38461 0,-1.15384 0,-1.53847c0,-0.38461 0,-1.15384 0,-1.53845c0,-0.76923 0,-1.15385 0,-1.53847c0,-0.76923 0,-1.15384 0,-1.92308c0,-0.38461 -0.54393,-0.99452 0,-1.53845c0.54393,-0.54393 0.76923,-0.38461 0.76923,-1.15385c0,-0.38461 0.11266,-0.49727 0.38461,-0.76923c0.54393,-0.54393 -0.54393,-1.37915 0,-1.92308c0.27197,-0.27197 0.38463,-0.38461 0.38463,-0.76923c0,-0.76923 0.76923,-0.76923 0.76923,-1.15384c0,-0.76924 0.76923,-1.15385 0.38461,-1.15385c-0.38461,0 0,1.15385 0,1.53847c0,0.76923 0,1.15384 0,1.53845c0,0.76924 0.76923,1.15385 0.76923,1.92308c0,0.38461 0,0.76923 0,1.53847c0,0.38461 0,1.15384 0,1.53845c0,0.38461 0,1.15385 0,1.53847c0,0.76923 0,1.15384 0,1.53847c0,0.76923 -0.76923,1.92307 0,1.92307c0.76923,0 0.11954,-0.80009 0.38463,-1.92307c0.19759,-0.83704 0.70171,-1.1915 1.15384,-1.92308c0.60661,-0.98152 0.18703,-1.47067 0.38461,-2.30769c0.08836,-0.37433 -0.20221,-1.21129 0,-1.53847c0.45213,-0.73158 0.76923,-1.15384 0.76923,-1.53845c0,-0.76924 0.38463,-1.15385 0.38463,-1.53847c0,-0.76923 0.11266,-0.88188 0.38461,-1.15384c0.54393,-0.54393 0.2253,-1.69778 0.76923,-1.15385c0.27196,0.27196 -0.047,1.15674 0,1.53847c0.19376,1.57391 0.38461,2.69231 0.38461,3.84615c0,1.15385 0,1.53847 0,2.30769c0,0.38461 0,0.76923 0,1.53847c0,0.38461 -0.11266,0.27196 -0.38461,0c-0.54393,-0.54393 -0.88188,-0.49728 -1.15384,-0.76924c-0.27196,-0.27196 -0.23744,-0.41389 -0.38463,-0.76923c-0.41631,-1.00504 -0.88188,-0.88188 -1.15384,-1.15384c-0.54393,-0.54393 -0.88188,-0.49728 -1.15384,-0.76924c-0.27196,-0.27196 -0.38463,-0.38461 -0.38463,-0.76923c0,-0.76923 -0.76923,-0.76923 -0.76923,-1.15384c0,-0.76924 -0.38461,-0.76924 -0.38461,-1.15385c0,-0.38461 -0.2253,-0.60991 -0.76923,-1.15384c-0.27196,-0.27196 0,-1.15385 0,-1.53847c0,-0.38461 -0.11266,-0.88187 -0.38463,-1.15384c-0.27197,-0.27197 0,-1.15385 0,-1.53847c0,-0.38461 -0.1593,-0.60991 0.38463,-1.15384c0.54393,-0.54393 0.88188,-0.11267 1.15384,-0.38463c0.54393,-0.54393 0.2253,-0.60991 0.76923,-1.15384c0.27196,-0.27196 0.38463,-0.38461 0.38463,-1.15385c0,-0.38461 -0.15932,-0.60991 0.38461,-1.15384c0.54393,-0.54393 0.88188,-0.11266 1.15384,-0.38461c0.27196,-0.27196 0.88188,-0.11264 1.15385,-0.38461c0.54393,-0.54393 0.38461,-0.76924 1.15384,-0.76924c0.38461,0 1.15385,0 1.15385,-0.38461l0.38461,0l0,-0.76923l0.38461,0" id="svg_109" stroke-width="5" stroke="#3d2019" fill="none"/>
  <path d="m403.23077,435.53848c0,0.76923 -0.54391,1.37915 0,1.92307c0.54391,0.54391 0.76923,0.38461 0.76923,0.76923c0,0.76926 0.38461,0.76926 0.38461,1.15387c0,0.76923 0.11264,0.88187 0.38461,1.15384c0.54395,0.54395 0.8819,0.11264 1.15387,0.38461c0.54391,0.54391 0.76923,0.76923 0.76923,1.15384l0.38461,0l0,0.76923" id="svg_110" stroke-width="5" stroke="#3d2019" fill="none"/>
  <path d="m485.15387,292.07693c0,0.38461 -0.38464,0.38461 -0.38464,0.76923c0,0.76923 0,1.15384 0,1.9231c0,0.38461 -0.76923,1.53845 0,1.53845c0.76923,0 0,-1.15384 0,-1.53845c0,-0.76926 0.11267,-0.8819 0.38464,-1.15387c0.54391,-0.54391 0,-1.15384 0,-1.53845c0,-0.76923 0.22531,-0.60992 0.76923,-1.15384c0.54391,-0.54391 0,-1.15384 0,-1.53845c0,-0.76926 0.38461,-0.76926 0.38461,0c0,0.38461 0,0.76923 0,1.53845c0,0.38461 0,1.15384 0,1.53845c0,0.38461 0,1.15384 0,1.53845c0,0.76926 0,1.15387 0,1.53848c0,0.76923 0,1.15384 0,1.92307c0,0.38461 -0.60992,0.92853 -1.15384,0.38461c-0.27197,-0.27197 -0.11267,-0.88187 -0.38464,-1.15384c-0.27197,-0.27197 0,-1.15384 -0.76923,-1.15384c-0.76923,0 0.76923,0.76923 0.76923,1.15384c0,0.76923 0.38464,0.76923 0.38464,1.15384c0,0.38461 0.76923,0.38461 0.76923,1.15384c0,0.38464 -0.27197,1.26651 0,1.53848c0.27197,0.27197 0.38461,0.38461 0.38461,1.15384l0,0.38461l0.38461,0" id="svg_113" stroke-width="5" stroke="#4C261D" fill="none"/>
 </g>
</svg>